<mxfile host="app.diagrams.net" modified="2022-03-23T14:51:20.836Z" agent="5.0 (Windows NT 10.0; Win64; x64) AppleWebKit/537.36 (KHTML, like Gecko) Chrome/99.0.4844.82 Safari/537.36" etag="CFHEx__0PQAMlb36ZxR4" version="16.1.2" type="github">
  <diagram id="w_Io-nRY1FMDY3m6egu-" name="Page-1">
    <mxGraphModel dx="825" dy="430" grid="1" gridSize="10" guides="1" tooltips="1" connect="0" arrows="0" fold="1" page="1" pageScale="1" pageWidth="850" pageHeight="1100" math="0" shadow="0">
      <root>
        <mxCell id="0" />
        <mxCell id="1" parent="0" />
        <mxCell id="H6Rytph9yBVc3_2G-r5q-277" value="" style="shape=flexArrow;endArrow=none;html=1;rounded=0;shadow=0;comic=0;sketch=0;fontFamily=Helvetica;startSize=0;endSize=2.016279069767442;strokeWidth=2;width=3.488372093023256;endFill=0;fillColor=#ffe6cc;strokeColor=#d79b00;" edge="1" parent="1">
          <mxGeometry width="50" height="50" relative="1" as="geometry">
            <mxPoint x="348.87" y="1229" as="sourcePoint" />
            <mxPoint x="377.87" y="1229" as="targetPoint" />
          </mxGeometry>
        </mxCell>
        <mxCell id="H6Rytph9yBVc3_2G-r5q-285" value="" style="shape=flexArrow;endArrow=none;html=1;rounded=0;shadow=0;comic=0;sketch=0;fontFamily=Helvetica;startSize=0;endSize=2.016279069767442;strokeWidth=2;width=3.488372093023256;endFill=0;fillColor=#ffe6cc;strokeColor=#d79b00;edgeStyle=orthogonalEdgeStyle;entryX=0.07;entryY=0.494;entryDx=0;entryDy=0;entryPerimeter=0;" edge="1" parent="1" target="H6Rytph9yBVc3_2G-r5q-254">
          <mxGeometry width="50" height="50" relative="1" as="geometry">
            <mxPoint x="340" y="1191" as="sourcePoint" />
            <mxPoint x="400" y="1210" as="targetPoint" />
            <Array as="points">
              <mxPoint x="374" y="1191" />
              <mxPoint x="398" y="1191" />
            </Array>
          </mxGeometry>
        </mxCell>
        <mxCell id="H6Rytph9yBVc3_2G-r5q-2" value="" style="shape=cube;whiteSpace=wrap;html=1;boundedLbl=1;backgroundOutline=1;darkOpacity=0.05;darkOpacity2=0.1;size=110;direction=east;flipH=1;fillColor=#ffe6cc;strokeColor=#d79b00;" vertex="1" parent="1">
          <mxGeometry x="91" y="96" width="120" height="420" as="geometry" />
        </mxCell>
        <mxCell id="H6Rytph9yBVc3_2G-r5q-3" value="" style="shape=cube;whiteSpace=wrap;html=1;boundedLbl=1;backgroundOutline=1;darkOpacity=0.05;darkOpacity2=0.1;size=70;direction=east;flipH=1;fillColor=#f8cecc;strokeColor=#b85450;" vertex="1" parent="1">
          <mxGeometry x="121" y="186" width="80" height="240" as="geometry" />
        </mxCell>
        <mxCell id="H6Rytph9yBVc3_2G-r5q-4" value="" style="shape=cube;whiteSpace=wrap;html=1;boundedLbl=1;backgroundOutline=1;darkOpacity=0.05;darkOpacity2=0.1;size=70;direction=east;flipH=1;fillColor=#ffe6cc;strokeColor=#d79b00;" vertex="1" parent="1">
          <mxGeometry x="136" y="186" width="80" height="240" as="geometry" />
        </mxCell>
        <mxCell id="H6Rytph9yBVc3_2G-r5q-5" value="" style="shape=cube;whiteSpace=wrap;html=1;boundedLbl=1;backgroundOutline=1;darkOpacity=0.05;darkOpacity2=0.1;size=70;direction=east;flipH=1;fillColor=#ffe6cc;strokeColor=#d79b00;" vertex="1" parent="1">
          <mxGeometry x="155" y="186" width="80" height="240" as="geometry" />
        </mxCell>
        <mxCell id="H6Rytph9yBVc3_2G-r5q-6" value="" style="shape=cube;whiteSpace=wrap;html=1;boundedLbl=1;backgroundOutline=1;darkOpacity=0.05;darkOpacity2=0.1;size=40;direction=east;flipH=1;fillColor=#f8cecc;strokeColor=#b85450;" vertex="1" parent="1">
          <mxGeometry x="191" y="232.25" width="50" height="133.75" as="geometry" />
        </mxCell>
        <mxCell id="H6Rytph9yBVc3_2G-r5q-7" value="" style="shape=cube;whiteSpace=wrap;html=1;boundedLbl=1;backgroundOutline=1;darkOpacity=0.05;darkOpacity2=0.1;size=40;direction=east;flipH=1;fillColor=#ffe6cc;strokeColor=#d79b00;" vertex="1" parent="1">
          <mxGeometry x="208" y="232.25" width="50" height="133.75" as="geometry" />
        </mxCell>
        <mxCell id="H6Rytph9yBVc3_2G-r5q-8" value="" style="shape=cube;whiteSpace=wrap;html=1;boundedLbl=1;backgroundOutline=1;darkOpacity=0.05;darkOpacity2=0.1;size=40;direction=east;flipH=1;fillColor=#ffe6cc;strokeColor=#d79b00;" vertex="1" parent="1">
          <mxGeometry x="225" y="232.25" width="50" height="133.75" as="geometry" />
        </mxCell>
        <mxCell id="H6Rytph9yBVc3_2G-r5q-9" value="" style="shape=cube;whiteSpace=wrap;html=1;boundedLbl=1;backgroundOutline=1;darkOpacity=0.05;darkOpacity2=0.1;size=40;direction=east;flipH=1;fillColor=#ffe6cc;strokeColor=#d79b00;" vertex="1" parent="1">
          <mxGeometry x="242" y="232.25" width="50" height="133.75" as="geometry" />
        </mxCell>
        <mxCell id="H6Rytph9yBVc3_2G-r5q-10" value="" style="shape=cube;whiteSpace=wrap;html=1;boundedLbl=1;backgroundOutline=1;darkOpacity=0.05;darkOpacity2=0.1;size=20;direction=east;flipH=1;fillColor=#f8cecc;strokeColor=#b85450;" vertex="1" parent="1">
          <mxGeometry x="275" y="262.56" width="40" height="73.13" as="geometry" />
        </mxCell>
        <mxCell id="H6Rytph9yBVc3_2G-r5q-11" value="" style="shape=cube;whiteSpace=wrap;html=1;boundedLbl=1;backgroundOutline=1;darkOpacity=0.05;darkOpacity2=0.1;size=20;direction=east;flipH=1;fillColor=#ffe6cc;strokeColor=#d79b00;" vertex="1" parent="1">
          <mxGeometry x="301" y="262.56" width="40" height="73.13" as="geometry" />
        </mxCell>
        <mxCell id="H6Rytph9yBVc3_2G-r5q-12" value="" style="shape=cube;whiteSpace=wrap;html=1;boundedLbl=1;backgroundOutline=1;darkOpacity=0.05;darkOpacity2=0.1;size=20;direction=east;flipH=1;fillColor=#ffe6cc;strokeColor=#d79b00;" vertex="1" parent="1">
          <mxGeometry x="326" y="262.56" width="40" height="73.13" as="geometry" />
        </mxCell>
        <mxCell id="H6Rytph9yBVc3_2G-r5q-13" value="" style="shape=cube;whiteSpace=wrap;html=1;boundedLbl=1;backgroundOutline=1;darkOpacity=0.05;darkOpacity2=0.1;size=20;direction=east;flipH=1;fillColor=#ffe6cc;strokeColor=#d79b00;" vertex="1" parent="1">
          <mxGeometry x="351" y="262.56" width="40" height="73.13" as="geometry" />
        </mxCell>
        <mxCell id="H6Rytph9yBVc3_2G-r5q-14" value="" style="shape=cube;whiteSpace=wrap;html=1;boundedLbl=1;backgroundOutline=1;darkOpacity=0.05;darkOpacity2=0.1;size=10;direction=east;flipH=1;fillColor=#f8cecc;strokeColor=#b85450;" vertex="1" parent="1">
          <mxGeometry x="381" y="279.13" width="35" height="40" as="geometry" />
        </mxCell>
        <mxCell id="H6Rytph9yBVc3_2G-r5q-15" value="" style="shape=cube;whiteSpace=wrap;html=1;boundedLbl=1;backgroundOutline=1;darkOpacity=0.05;darkOpacity2=0.1;size=10;direction=east;flipH=1;fillColor=#ffe6cc;strokeColor=#d79b00;" vertex="1" parent="1">
          <mxGeometry x="412" y="279.13" width="35" height="40" as="geometry" />
        </mxCell>
        <mxCell id="H6Rytph9yBVc3_2G-r5q-16" value="" style="shape=cube;whiteSpace=wrap;html=1;boundedLbl=1;backgroundOutline=1;darkOpacity=0.05;darkOpacity2=0.1;size=7;direction=east;flipH=1;fillColor=#f8cecc;strokeColor=#b85450;" vertex="1" parent="1">
          <mxGeometry x="511" y="288.96" width="33" height="20.32" as="geometry" />
        </mxCell>
        <mxCell id="H6Rytph9yBVc3_2G-r5q-17" value="" style="shape=cube;whiteSpace=wrap;html=1;boundedLbl=1;backgroundOutline=1;darkOpacity=0.05;darkOpacity2=0.1;size=3;direction=east;flipH=1;fillColor=#dae8fc;strokeColor=#6c8ebf;" vertex="1" parent="1">
          <mxGeometry x="546" y="295.12" width="74" height="8" as="geometry" />
        </mxCell>
        <mxCell id="H6Rytph9yBVc3_2G-r5q-18" value="" style="shape=cube;whiteSpace=wrap;html=1;boundedLbl=1;backgroundOutline=1;darkOpacity=0.05;darkOpacity2=0.1;size=3;direction=east;flipH=1;fillColor=#dae8fc;strokeColor=#6c8ebf;" vertex="1" parent="1">
          <mxGeometry x="622" y="295.13" width="74" height="8" as="geometry" />
        </mxCell>
        <mxCell id="H6Rytph9yBVc3_2G-r5q-19" value="" style="shape=cube;whiteSpace=wrap;html=1;boundedLbl=1;backgroundOutline=1;darkOpacity=0.05;darkOpacity2=0.1;size=3;direction=east;flipH=1;fillColor=#dae8fc;strokeColor=#6c8ebf;" vertex="1" parent="1">
          <mxGeometry x="698" y="295.13" width="38" height="8" as="geometry" />
        </mxCell>
        <mxCell id="H6Rytph9yBVc3_2G-r5q-20" value="" style="shape=cube;whiteSpace=wrap;html=1;boundedLbl=1;backgroundOutline=1;darkOpacity=0.05;darkOpacity2=0.1;size=7;direction=east;flipH=1;fillColor=#ffe6cc;strokeColor=#d79b00;" vertex="1" parent="1">
          <mxGeometry x="563" y="396" width="30" height="20" as="geometry" />
        </mxCell>
        <mxCell id="H6Rytph9yBVc3_2G-r5q-21" value="" style="shape=cube;whiteSpace=wrap;html=1;boundedLbl=1;backgroundOutline=1;darkOpacity=0.05;darkOpacity2=0.1;size=7;direction=east;flipH=1;fillColor=#f8cecc;strokeColor=#b85450;" vertex="1" parent="1">
          <mxGeometry x="563" y="426" width="30" height="20" as="geometry" />
        </mxCell>
        <mxCell id="H6Rytph9yBVc3_2G-r5q-22" value="" style="shape=cube;whiteSpace=wrap;html=1;boundedLbl=1;backgroundOutline=1;darkOpacity=0.05;darkOpacity2=0.1;size=7;direction=east;flipH=1;fillColor=#dae8fc;strokeColor=#6c8ebf;" vertex="1" parent="1">
          <mxGeometry x="563" y="456" width="30" height="20" as="geometry" />
        </mxCell>
        <mxCell id="H6Rytph9yBVc3_2G-r5q-23" value="" style="shape=cube;whiteSpace=wrap;html=1;boundedLbl=1;backgroundOutline=1;darkOpacity=0.05;darkOpacity2=0.1;size=3;direction=east;flipH=1;fillColor=#d5e8d4;strokeColor=#82b366;" vertex="1" parent="1">
          <mxGeometry x="738" y="295.12" width="38" height="8" as="geometry" />
        </mxCell>
        <mxCell id="H6Rytph9yBVc3_2G-r5q-24" value="" style="shape=cube;whiteSpace=wrap;html=1;boundedLbl=1;backgroundOutline=1;darkOpacity=0.05;darkOpacity2=0.1;size=7;direction=east;flipH=1;fillColor=#d5e8d4;strokeColor=#82b366;" vertex="1" parent="1">
          <mxGeometry x="563" y="486" width="30" height="20" as="geometry" />
        </mxCell>
        <mxCell id="H6Rytph9yBVc3_2G-r5q-25" value="&lt;b&gt;conv1&lt;/b&gt;" style="text;html=1;strokeColor=none;fillColor=none;align=center;verticalAlign=middle;whiteSpace=wrap;rounded=0;" vertex="1" parent="1">
          <mxGeometry x="185" y="60" width="40" height="30" as="geometry" />
        </mxCell>
        <mxCell id="H6Rytph9yBVc3_2G-r5q-26" value="&lt;b&gt;conv2&lt;/b&gt;" style="text;html=1;strokeColor=none;fillColor=none;align=center;verticalAlign=middle;whiteSpace=wrap;rounded=0;" vertex="1" parent="1">
          <mxGeometry x="216" y="152" width="40" height="30" as="geometry" />
        </mxCell>
        <mxCell id="H6Rytph9yBVc3_2G-r5q-27" value="&lt;b&gt;conv3&lt;/b&gt;" style="text;html=1;strokeColor=none;fillColor=none;align=center;verticalAlign=middle;whiteSpace=wrap;rounded=0;" vertex="1" parent="1">
          <mxGeometry x="247" y="196" width="40" height="30" as="geometry" />
        </mxCell>
        <mxCell id="H6Rytph9yBVc3_2G-r5q-28" value="&lt;b&gt;conv4&lt;/b&gt;" style="text;html=1;strokeColor=none;fillColor=none;align=center;verticalAlign=middle;whiteSpace=wrap;rounded=0;" vertex="1" parent="1">
          <mxGeometry x="326" y="232.25" width="40" height="30" as="geometry" />
        </mxCell>
        <mxCell id="H6Rytph9yBVc3_2G-r5q-29" value="&lt;b&gt;conv5&lt;/b&gt;" style="text;html=1;strokeColor=none;fillColor=none;align=center;verticalAlign=middle;whiteSpace=wrap;rounded=0;" vertex="1" parent="1">
          <mxGeometry x="441" y="246" width="40" height="30" as="geometry" />
        </mxCell>
        <mxCell id="H6Rytph9yBVc3_2G-r5q-30" value="&lt;b&gt;fc6&lt;/b&gt;" style="text;html=1;strokeColor=none;fillColor=none;align=center;verticalAlign=middle;whiteSpace=wrap;rounded=0;" vertex="1" parent="1">
          <mxGeometry x="563" y="262.56" width="40" height="30" as="geometry" />
        </mxCell>
        <mxCell id="H6Rytph9yBVc3_2G-r5q-31" value="&lt;b&gt;fc7&lt;/b&gt;" style="text;html=1;strokeColor=none;fillColor=none;align=center;verticalAlign=middle;whiteSpace=wrap;rounded=0;" vertex="1" parent="1">
          <mxGeometry x="639" y="262.56" width="40" height="30" as="geometry" />
        </mxCell>
        <mxCell id="H6Rytph9yBVc3_2G-r5q-32" value="&lt;b&gt;fc8&lt;/b&gt;" style="text;html=1;strokeColor=none;fillColor=none;align=center;verticalAlign=middle;whiteSpace=wrap;rounded=0;" vertex="1" parent="1">
          <mxGeometry x="698" y="262.56" width="40" height="30" as="geometry" />
        </mxCell>
        <mxCell id="H6Rytph9yBVc3_2G-r5q-33" value="224 x 224 x 64" style="text;html=1;strokeColor=none;fillColor=none;align=center;verticalAlign=middle;whiteSpace=wrap;rounded=0;" vertex="1" parent="1">
          <mxGeometry x="41" y="516" width="99" height="30" as="geometry" />
        </mxCell>
        <mxCell id="H6Rytph9yBVc3_2G-r5q-34" value="112 x 112 x 128" style="text;html=1;strokeColor=none;fillColor=none;align=center;verticalAlign=middle;whiteSpace=wrap;rounded=0;" vertex="1" parent="1">
          <mxGeometry x="117" y="426" width="99" height="30" as="geometry" />
        </mxCell>
        <mxCell id="H6Rytph9yBVc3_2G-r5q-35" value="56 x 56 x 256" style="text;html=1;strokeColor=none;fillColor=none;align=center;verticalAlign=middle;whiteSpace=wrap;rounded=0;" vertex="1" parent="1">
          <mxGeometry x="204" y="365" width="99" height="30" as="geometry" />
        </mxCell>
        <mxCell id="H6Rytph9yBVc3_2G-r5q-36" value="28 x 28 x 512" style="text;html=1;strokeColor=none;fillColor=none;align=center;verticalAlign=middle;whiteSpace=wrap;rounded=0;" vertex="1" parent="1">
          <mxGeometry x="275" y="332" width="99" height="30" as="geometry" />
        </mxCell>
        <mxCell id="H6Rytph9yBVc3_2G-r5q-37" value="14 x 14 x 512" style="text;html=1;strokeColor=none;fillColor=none;align=center;verticalAlign=middle;whiteSpace=wrap;rounded=0;" vertex="1" parent="1">
          <mxGeometry x="391" y="317.12" width="99" height="30" as="geometry" />
        </mxCell>
        <mxCell id="H6Rytph9yBVc3_2G-r5q-38" value="" style="shape=cube;whiteSpace=wrap;html=1;boundedLbl=1;backgroundOutline=1;darkOpacity=0.05;darkOpacity2=0.1;size=10;direction=east;flipH=1;fillColor=#ffe6cc;strokeColor=#d79b00;" vertex="1" parent="1">
          <mxGeometry x="441" y="279.13" width="35" height="40" as="geometry" />
        </mxCell>
        <mxCell id="H6Rytph9yBVc3_2G-r5q-39" value="" style="shape=cube;whiteSpace=wrap;html=1;boundedLbl=1;backgroundOutline=1;darkOpacity=0.05;darkOpacity2=0.1;size=10;direction=east;flipH=1;fillColor=#ffe6cc;strokeColor=#d79b00;" vertex="1" parent="1">
          <mxGeometry x="472" y="279.12" width="35" height="40" as="geometry" />
        </mxCell>
        <mxCell id="H6Rytph9yBVc3_2G-r5q-40" value="7 x 7 x 512" style="text;html=1;strokeColor=none;fillColor=none;align=center;verticalAlign=middle;whiteSpace=wrap;rounded=0;" vertex="1" parent="1">
          <mxGeometry x="474" y="342.12" width="99" height="23.88" as="geometry" />
        </mxCell>
        <mxCell id="H6Rytph9yBVc3_2G-r5q-41" value="" style="endArrow=classic;html=1;entryX=0.605;entryY=1.084;entryDx=0;entryDy=0;entryPerimeter=0;" edge="1" parent="1" source="H6Rytph9yBVc3_2G-r5q-40" target="H6Rytph9yBVc3_2G-r5q-16">
          <mxGeometry width="50" height="50" relative="1" as="geometry">
            <mxPoint x="527.16" y="347.12" as="sourcePoint" />
            <mxPoint x="528" y="317" as="targetPoint" />
          </mxGeometry>
        </mxCell>
        <mxCell id="H6Rytph9yBVc3_2G-r5q-42" value="1 x 1 x 4096" style="text;html=1;strokeColor=none;fillColor=none;align=center;verticalAlign=middle;whiteSpace=wrap;rounded=0;" vertex="1" parent="1">
          <mxGeometry x="573" y="303.13" width="99" height="24" as="geometry" />
        </mxCell>
        <mxCell id="H6Rytph9yBVc3_2G-r5q-43" value="1 x 1 x 1000" style="text;html=1;strokeColor=none;fillColor=none;align=center;verticalAlign=middle;whiteSpace=wrap;rounded=0;" vertex="1" parent="1">
          <mxGeometry x="688" y="303.13" width="99" height="24" as="geometry" />
        </mxCell>
        <mxCell id="H6Rytph9yBVc3_2G-r5q-44" value="convolutional + ReLU" style="text;html=1;strokeColor=none;fillColor=none;align=left;verticalAlign=middle;whiteSpace=wrap;rounded=0;fontStyle=1" vertex="1" parent="1">
          <mxGeometry x="604" y="393.06" width="138" height="23.88" as="geometry" />
        </mxCell>
        <mxCell id="H6Rytph9yBVc3_2G-r5q-45" value="max pooling" style="text;html=1;strokeColor=none;fillColor=none;align=left;verticalAlign=middle;whiteSpace=wrap;rounded=0;fontStyle=1" vertex="1" parent="1">
          <mxGeometry x="604" y="423.06" width="138" height="23.88" as="geometry" />
        </mxCell>
        <mxCell id="H6Rytph9yBVc3_2G-r5q-46" value="fully connected + ReLU" style="text;html=1;strokeColor=none;fillColor=none;align=left;verticalAlign=middle;whiteSpace=wrap;rounded=0;fontStyle=1" vertex="1" parent="1">
          <mxGeometry x="604" y="454.12" width="138" height="23.88" as="geometry" />
        </mxCell>
        <mxCell id="H6Rytph9yBVc3_2G-r5q-47" value="softmax" style="text;html=1;strokeColor=none;fillColor=none;align=left;verticalAlign=middle;whiteSpace=wrap;rounded=0;fontStyle=1" vertex="1" parent="1">
          <mxGeometry x="603" y="482.12" width="138" height="23.88" as="geometry" />
        </mxCell>
        <mxCell id="H6Rytph9yBVc3_2G-r5q-105" value="" style="shape=cube;whiteSpace=wrap;html=1;boundedLbl=1;backgroundOutline=1;darkOpacity=0.05;darkOpacity2=0.1;size=30;direction=east;flipH=1;fillColor=#ffe6cc;strokeColor=#d79b00;" vertex="1" parent="1">
          <mxGeometry x="200" y="700" width="49" height="200" as="geometry" />
        </mxCell>
        <mxCell id="H6Rytph9yBVc3_2G-r5q-106" value="" style="shape=cube;whiteSpace=wrap;html=1;boundedLbl=1;backgroundOutline=1;darkOpacity=0.05;darkOpacity2=0.1;size=30;direction=east;flipH=1;fillColor=#ffe6cc;strokeColor=#d79b00;" vertex="1" parent="1">
          <mxGeometry x="320" y="740" width="63" height="120" as="geometry" />
        </mxCell>
        <mxCell id="H6Rytph9yBVc3_2G-r5q-108" value="" style="shape=cube;whiteSpace=wrap;html=1;boundedLbl=1;backgroundOutline=1;darkOpacity=0.05;darkOpacity2=0.1;size=30;direction=east;flipH=1;fillColor=#ffe6cc;strokeColor=#d79b00;" vertex="1" parent="1">
          <mxGeometry x="425" y="740" width="100" height="120" as="geometry" />
        </mxCell>
        <mxCell id="H6Rytph9yBVc3_2G-r5q-109" value="" style="shape=cube;whiteSpace=wrap;html=1;boundedLbl=1;backgroundOutline=1;darkOpacity=0.05;darkOpacity2=0.1;size=30;direction=east;flipH=1;fillColor=#ffe6cc;strokeColor=#d79b00;" vertex="1" parent="1">
          <mxGeometry x="560" y="740" width="100" height="120" as="geometry" />
        </mxCell>
        <mxCell id="H6Rytph9yBVc3_2G-r5q-112" value="" style="shape=cube;whiteSpace=wrap;html=1;boundedLbl=1;backgroundOutline=1;darkOpacity=0.05;darkOpacity2=0.1;size=30;direction=east;flipH=1;fillColor=#ffe6cc;strokeColor=#d79b00;" vertex="1" parent="1">
          <mxGeometry x="720" y="740" width="63" height="120" as="geometry" />
        </mxCell>
        <mxCell id="H6Rytph9yBVc3_2G-r5q-114" value="" style="shape=cube;whiteSpace=wrap;html=1;boundedLbl=1;backgroundOutline=1;darkOpacity=0.05;darkOpacity2=0.1;size=30;direction=east;flipH=1;fillColor=#ffe6cc;strokeColor=#d79b00;" vertex="1" parent="1">
          <mxGeometry x="850" y="700" width="49" height="200" as="geometry" />
        </mxCell>
        <mxCell id="H6Rytph9yBVc3_2G-r5q-115" value="" style="shape=cube;whiteSpace=wrap;html=1;boundedLbl=1;backgroundOutline=1;darkOpacity=0.05;darkOpacity2=0.1;size=30;direction=east;flipH=1;fillColor=#ffe6cc;strokeColor=#d79b00;" vertex="1" parent="1">
          <mxGeometry x="960" y="700" width="49" height="200" as="geometry" />
        </mxCell>
        <mxCell id="H6Rytph9yBVc3_2G-r5q-116" value="" style="shape=cube;whiteSpace=wrap;html=1;boundedLbl=1;backgroundOutline=1;darkOpacity=0.05;darkOpacity2=0.1;size=30;direction=east;flipH=1;fillColor=#ffe6cc;strokeColor=#d79b00;" vertex="1" parent="1">
          <mxGeometry x="1080" y="640" width="40" height="320" as="geometry" />
        </mxCell>
        <mxCell id="H6Rytph9yBVc3_2G-r5q-119" value="" style="shape=cube;whiteSpace=wrap;html=1;boundedLbl=1;backgroundOutline=1;darkOpacity=0.05;darkOpacity2=0.1;size=29;direction=east;flipH=1;fillColor=#ffe6cc;strokeColor=#d79b00;" vertex="1" parent="1">
          <mxGeometry x="1100" y="640" width="29" height="320" as="geometry" />
        </mxCell>
        <mxCell id="H6Rytph9yBVc3_2G-r5q-120" value="" style="shape=cube;whiteSpace=wrap;html=1;boundedLbl=1;backgroundOutline=1;darkOpacity=0.05;darkOpacity2=0.1;size=29;direction=east;flipH=1;fillColor=#ffe6cc;strokeColor=#d79b00;" vertex="1" parent="1">
          <mxGeometry x="227" y="700" width="29" height="200" as="geometry" />
        </mxCell>
        <mxCell id="H6Rytph9yBVc3_2G-r5q-122" value="" style="shape=cube;whiteSpace=wrap;html=1;boundedLbl=1;backgroundOutline=1;darkOpacity=0.05;darkOpacity2=0.1;size=29;direction=east;flipH=1;fillColor=#f8cecc;strokeColor=#b85450;" vertex="1" parent="1">
          <mxGeometry x="160" y="1182" width="8" height="20" as="geometry" />
        </mxCell>
        <mxCell id="H6Rytph9yBVc3_2G-r5q-123" value="" style="shape=cube;whiteSpace=wrap;html=1;boundedLbl=1;backgroundOutline=1;darkOpacity=0.05;darkOpacity2=0.1;size=29;direction=east;flipH=1;fillColor=#d5e8d4;strokeColor=#82b366;" vertex="1" parent="1">
          <mxGeometry x="169" y="1173" width="8" height="20" as="geometry" />
        </mxCell>
        <mxCell id="H6Rytph9yBVc3_2G-r5q-124" value="" style="shape=cube;whiteSpace=wrap;html=1;boundedLbl=1;backgroundOutline=1;darkOpacity=0.05;darkOpacity2=0.1;size=29;direction=east;flipH=1;fillColor=#d5e8d4;strokeColor=#82b366;" vertex="1" parent="1">
          <mxGeometry x="160" y="1195" width="8" height="20" as="geometry" />
        </mxCell>
        <mxCell id="H6Rytph9yBVc3_2G-r5q-125" value="" style="shape=cube;whiteSpace=wrap;html=1;boundedLbl=1;backgroundOutline=1;darkOpacity=0.05;darkOpacity2=0.1;size=29;direction=east;flipH=1;fillColor=#dae8fc;strokeColor=#6c8ebf;" vertex="1" parent="1">
          <mxGeometry x="169" y="1186" width="8" height="20" as="geometry" />
        </mxCell>
        <mxCell id="H6Rytph9yBVc3_2G-r5q-126" value="" style="shape=cube;whiteSpace=wrap;html=1;boundedLbl=1;backgroundOutline=1;darkOpacity=0.05;darkOpacity2=0.1;size=29;direction=east;flipH=1;fillColor=#f8cecc;strokeColor=#b85450;" vertex="1" parent="1">
          <mxGeometry x="160" y="1208" width="8" height="20" as="geometry" />
        </mxCell>
        <mxCell id="H6Rytph9yBVc3_2G-r5q-127" value="" style="shape=cube;whiteSpace=wrap;html=1;boundedLbl=1;backgroundOutline=1;darkOpacity=0.05;darkOpacity2=0.1;size=29;direction=east;flipH=1;fillColor=#d5e8d4;strokeColor=#82b366;" vertex="1" parent="1">
          <mxGeometry x="169" y="1199" width="8" height="20" as="geometry" />
        </mxCell>
        <mxCell id="H6Rytph9yBVc3_2G-r5q-128" value="" style="shape=cube;whiteSpace=wrap;html=1;boundedLbl=1;backgroundOutline=1;darkOpacity=0.05;darkOpacity2=0.1;size=29;direction=east;flipH=1;fillColor=#d5e8d4;strokeColor=#82b366;" vertex="1" parent="1">
          <mxGeometry x="160" y="1221" width="8" height="20" as="geometry" />
        </mxCell>
        <mxCell id="H6Rytph9yBVc3_2G-r5q-129" value="" style="shape=cube;whiteSpace=wrap;html=1;boundedLbl=1;backgroundOutline=1;darkOpacity=0.05;darkOpacity2=0.1;size=29;direction=east;flipH=1;fillColor=#dae8fc;strokeColor=#6c8ebf;" vertex="1" parent="1">
          <mxGeometry x="169" y="1212" width="8" height="20" as="geometry" />
        </mxCell>
        <mxCell id="H6Rytph9yBVc3_2G-r5q-130" value="" style="shape=cube;whiteSpace=wrap;html=1;boundedLbl=1;backgroundOutline=1;darkOpacity=0.05;darkOpacity2=0.1;size=29;direction=east;flipH=1;fillColor=#f8cecc;strokeColor=#b85450;" vertex="1" parent="1">
          <mxGeometry x="178" y="1164" width="8" height="20" as="geometry" />
        </mxCell>
        <mxCell id="H6Rytph9yBVc3_2G-r5q-131" value="" style="shape=cube;whiteSpace=wrap;html=1;boundedLbl=1;backgroundOutline=1;darkOpacity=0.05;darkOpacity2=0.1;size=29;direction=east;flipH=1;fillColor=#d5e8d4;strokeColor=#82b366;" vertex="1" parent="1">
          <mxGeometry x="187" y="1155" width="8" height="20" as="geometry" />
        </mxCell>
        <mxCell id="H6Rytph9yBVc3_2G-r5q-132" value="" style="shape=cube;whiteSpace=wrap;html=1;boundedLbl=1;backgroundOutline=1;darkOpacity=0.05;darkOpacity2=0.1;size=29;direction=east;flipH=1;fillColor=#d5e8d4;strokeColor=#82b366;" vertex="1" parent="1">
          <mxGeometry x="178" y="1177" width="8" height="20" as="geometry" />
        </mxCell>
        <mxCell id="H6Rytph9yBVc3_2G-r5q-133" value="" style="shape=cube;whiteSpace=wrap;html=1;boundedLbl=1;backgroundOutline=1;darkOpacity=0.05;darkOpacity2=0.1;size=29;direction=east;flipH=1;fillColor=#dae8fc;strokeColor=#6c8ebf;" vertex="1" parent="1">
          <mxGeometry x="187" y="1168" width="8" height="20" as="geometry" />
        </mxCell>
        <mxCell id="H6Rytph9yBVc3_2G-r5q-134" value="" style="shape=cube;whiteSpace=wrap;html=1;boundedLbl=1;backgroundOutline=1;darkOpacity=0.05;darkOpacity2=0.1;size=29;direction=east;flipH=1;fillColor=#f8cecc;strokeColor=#b85450;" vertex="1" parent="1">
          <mxGeometry x="178" y="1190" width="8" height="20" as="geometry" />
        </mxCell>
        <mxCell id="H6Rytph9yBVc3_2G-r5q-135" value="" style="shape=cube;whiteSpace=wrap;html=1;boundedLbl=1;backgroundOutline=1;darkOpacity=0.05;darkOpacity2=0.1;size=29;direction=east;flipH=1;fillColor=#d5e8d4;strokeColor=#82b366;" vertex="1" parent="1">
          <mxGeometry x="187" y="1181" width="8" height="20" as="geometry" />
        </mxCell>
        <mxCell id="H6Rytph9yBVc3_2G-r5q-136" value="" style="shape=cube;whiteSpace=wrap;html=1;boundedLbl=1;backgroundOutline=1;darkOpacity=0.05;darkOpacity2=0.1;size=29;direction=east;flipH=1;fillColor=#d5e8d4;strokeColor=#82b366;" vertex="1" parent="1">
          <mxGeometry x="178" y="1203" width="8" height="20" as="geometry" />
        </mxCell>
        <mxCell id="H6Rytph9yBVc3_2G-r5q-137" value="" style="shape=cube;whiteSpace=wrap;html=1;boundedLbl=1;backgroundOutline=1;darkOpacity=0.05;darkOpacity2=0.1;size=29;direction=east;flipH=1;fillColor=#dae8fc;strokeColor=#6c8ebf;" vertex="1" parent="1">
          <mxGeometry x="187" y="1194" width="8" height="20" as="geometry" />
        </mxCell>
        <mxCell id="H6Rytph9yBVc3_2G-r5q-138" value="" style="shape=cube;whiteSpace=wrap;html=1;boundedLbl=1;backgroundOutline=1;darkOpacity=0.05;darkOpacity2=0.1;size=29;direction=east;flipH=1;fillColor=#f8cecc;strokeColor=#b85450;" vertex="1" parent="1">
          <mxGeometry x="160" y="1234" width="8" height="20" as="geometry" />
        </mxCell>
        <mxCell id="H6Rytph9yBVc3_2G-r5q-139" value="" style="shape=cube;whiteSpace=wrap;html=1;boundedLbl=1;backgroundOutline=1;darkOpacity=0.05;darkOpacity2=0.1;size=29;direction=east;flipH=1;fillColor=#d5e8d4;strokeColor=#82b366;" vertex="1" parent="1">
          <mxGeometry x="169" y="1225" width="8" height="20" as="geometry" />
        </mxCell>
        <mxCell id="H6Rytph9yBVc3_2G-r5q-140" value="" style="shape=cube;whiteSpace=wrap;html=1;boundedLbl=1;backgroundOutline=1;darkOpacity=0.05;darkOpacity2=0.1;size=29;direction=east;flipH=1;fillColor=#d5e8d4;strokeColor=#82b366;" vertex="1" parent="1">
          <mxGeometry x="160" y="1247" width="8" height="20" as="geometry" />
        </mxCell>
        <mxCell id="H6Rytph9yBVc3_2G-r5q-141" value="" style="shape=cube;whiteSpace=wrap;html=1;boundedLbl=1;backgroundOutline=1;darkOpacity=0.05;darkOpacity2=0.1;size=29;direction=east;flipH=1;fillColor=#dae8fc;strokeColor=#6c8ebf;" vertex="1" parent="1">
          <mxGeometry x="169" y="1238" width="8" height="20" as="geometry" />
        </mxCell>
        <mxCell id="H6Rytph9yBVc3_2G-r5q-142" value="" style="shape=cube;whiteSpace=wrap;html=1;boundedLbl=1;backgroundOutline=1;darkOpacity=0.05;darkOpacity2=0.1;size=29;direction=east;flipH=1;fillColor=#f8cecc;strokeColor=#b85450;" vertex="1" parent="1">
          <mxGeometry x="160" y="1260" width="8" height="20" as="geometry" />
        </mxCell>
        <mxCell id="H6Rytph9yBVc3_2G-r5q-143" value="" style="shape=cube;whiteSpace=wrap;html=1;boundedLbl=1;backgroundOutline=1;darkOpacity=0.05;darkOpacity2=0.1;size=29;direction=east;flipH=1;fillColor=#d5e8d4;strokeColor=#82b366;" vertex="1" parent="1">
          <mxGeometry x="169" y="1251" width="8" height="20" as="geometry" />
        </mxCell>
        <mxCell id="H6Rytph9yBVc3_2G-r5q-144" value="" style="shape=cube;whiteSpace=wrap;html=1;boundedLbl=1;backgroundOutline=1;darkOpacity=0.05;darkOpacity2=0.1;size=29;direction=east;flipH=1;fillColor=#d5e8d4;strokeColor=#82b366;" vertex="1" parent="1">
          <mxGeometry x="160" y="1273" width="8" height="20" as="geometry" />
        </mxCell>
        <mxCell id="H6Rytph9yBVc3_2G-r5q-145" value="" style="shape=cube;whiteSpace=wrap;html=1;boundedLbl=1;backgroundOutline=1;darkOpacity=0.05;darkOpacity2=0.1;size=29;direction=east;flipH=1;fillColor=#dae8fc;strokeColor=#6c8ebf;" vertex="1" parent="1">
          <mxGeometry x="169" y="1264" width="8" height="20" as="geometry" />
        </mxCell>
        <mxCell id="H6Rytph9yBVc3_2G-r5q-146" value="" style="shape=cube;whiteSpace=wrap;html=1;boundedLbl=1;backgroundOutline=1;darkOpacity=0.05;darkOpacity2=0.1;size=29;direction=east;flipH=1;fillColor=#f8cecc;strokeColor=#b85450;" vertex="1" parent="1">
          <mxGeometry x="178" y="1216" width="8" height="20" as="geometry" />
        </mxCell>
        <mxCell id="H6Rytph9yBVc3_2G-r5q-147" value="" style="shape=cube;whiteSpace=wrap;html=1;boundedLbl=1;backgroundOutline=1;darkOpacity=0.05;darkOpacity2=0.1;size=29;direction=east;flipH=1;fillColor=#d5e8d4;strokeColor=#82b366;" vertex="1" parent="1">
          <mxGeometry x="187" y="1207" width="8" height="20" as="geometry" />
        </mxCell>
        <mxCell id="H6Rytph9yBVc3_2G-r5q-148" value="" style="shape=cube;whiteSpace=wrap;html=1;boundedLbl=1;backgroundOutline=1;darkOpacity=0.05;darkOpacity2=0.1;size=29;direction=east;flipH=1;fillColor=#d5e8d4;strokeColor=#82b366;" vertex="1" parent="1">
          <mxGeometry x="178" y="1229" width="8" height="20" as="geometry" />
        </mxCell>
        <mxCell id="H6Rytph9yBVc3_2G-r5q-149" value="" style="shape=cube;whiteSpace=wrap;html=1;boundedLbl=1;backgroundOutline=1;darkOpacity=0.05;darkOpacity2=0.1;size=29;direction=east;flipH=1;fillColor=#dae8fc;strokeColor=#6c8ebf;" vertex="1" parent="1">
          <mxGeometry x="187" y="1220" width="8" height="20" as="geometry" />
        </mxCell>
        <mxCell id="H6Rytph9yBVc3_2G-r5q-150" value="" style="shape=cube;whiteSpace=wrap;html=1;boundedLbl=1;backgroundOutline=1;darkOpacity=0.05;darkOpacity2=0.1;size=29;direction=east;flipH=1;fillColor=#f8cecc;strokeColor=#b85450;" vertex="1" parent="1">
          <mxGeometry x="178" y="1242" width="8" height="20" as="geometry" />
        </mxCell>
        <mxCell id="H6Rytph9yBVc3_2G-r5q-151" value="" style="shape=cube;whiteSpace=wrap;html=1;boundedLbl=1;backgroundOutline=1;darkOpacity=0.05;darkOpacity2=0.1;size=29;direction=east;flipH=1;fillColor=#d5e8d4;strokeColor=#82b366;" vertex="1" parent="1">
          <mxGeometry x="187" y="1233" width="8" height="20" as="geometry" />
        </mxCell>
        <mxCell id="H6Rytph9yBVc3_2G-r5q-152" value="" style="shape=cube;whiteSpace=wrap;html=1;boundedLbl=1;backgroundOutline=1;darkOpacity=0.05;darkOpacity2=0.1;size=29;direction=east;flipH=1;fillColor=#d5e8d4;strokeColor=#82b366;" vertex="1" parent="1">
          <mxGeometry x="178" y="1255" width="8" height="20" as="geometry" />
        </mxCell>
        <mxCell id="H6Rytph9yBVc3_2G-r5q-153" value="" style="shape=cube;whiteSpace=wrap;html=1;boundedLbl=1;backgroundOutline=1;darkOpacity=0.05;darkOpacity2=0.1;size=29;direction=east;flipH=1;fillColor=#dae8fc;strokeColor=#6c8ebf;" vertex="1" parent="1">
          <mxGeometry x="187" y="1246" width="8" height="20" as="geometry" />
        </mxCell>
        <mxCell id="H6Rytph9yBVc3_2G-r5q-272" value="" style="shape=flexArrow;endArrow=none;html=1;rounded=0;shadow=0;comic=0;sketch=0;fontFamily=Helvetica;startSize=0;endSize=2.016279069767442;strokeWidth=2;width=3.488372093023256;endFill=0;fillColor=#ffe6cc;strokeColor=#d79b00;" edge="1" parent="1">
          <mxGeometry width="50" height="50" relative="1" as="geometry">
            <mxPoint x="181" y="1229" as="sourcePoint" />
            <mxPoint x="230" y="1229" as="targetPoint" />
          </mxGeometry>
        </mxCell>
        <mxCell id="H6Rytph9yBVc3_2G-r5q-227" value="" style="shape=cube;whiteSpace=wrap;html=1;boundedLbl=1;backgroundOutline=1;darkOpacity=0.05;darkOpacity2=0.1;size=29;direction=east;flipH=1;fillColor=#f8cecc;strokeColor=#b85450;" vertex="1" parent="1">
          <mxGeometry x="221" y="1182" width="19" height="90" as="geometry" />
        </mxCell>
        <mxCell id="H6Rytph9yBVc3_2G-r5q-228" value="" style="shape=cube;whiteSpace=wrap;html=1;boundedLbl=1;backgroundOutline=1;darkOpacity=0.05;darkOpacity2=0.1;size=29;direction=east;flipH=1;fillColor=#d5e8d4;strokeColor=#82b366;" vertex="1" parent="1">
          <mxGeometry x="224" y="1182" width="19" height="90" as="geometry" />
        </mxCell>
        <mxCell id="H6Rytph9yBVc3_2G-r5q-229" value="" style="shape=cube;whiteSpace=wrap;html=1;boundedLbl=1;backgroundOutline=1;darkOpacity=0.05;darkOpacity2=0.1;size=29;direction=east;flipH=1;fillColor=#d5e8d4;strokeColor=#82b366;" vertex="1" parent="1">
          <mxGeometry x="227" y="1182" width="19" height="90" as="geometry" />
        </mxCell>
        <mxCell id="H6Rytph9yBVc3_2G-r5q-230" value="" style="shape=cube;whiteSpace=wrap;html=1;boundedLbl=1;backgroundOutline=1;darkOpacity=0.05;darkOpacity2=0.1;size=29;direction=east;flipH=1;fillColor=#dae8fc;strokeColor=#6c8ebf;" vertex="1" parent="1">
          <mxGeometry x="231" y="1182" width="19" height="90" as="geometry" />
        </mxCell>
        <mxCell id="H6Rytph9yBVc3_2G-r5q-274" value="" style="shape=flexArrow;endArrow=none;html=1;rounded=0;shadow=0;comic=0;sketch=0;fontFamily=Helvetica;startSize=0;endSize=2.016279069767442;strokeWidth=2;width=3.488372093023256;endFill=0;fillColor=#ffe6cc;strokeColor=#d79b00;" edge="1" parent="1">
          <mxGeometry width="50" height="50" relative="1" as="geometry">
            <mxPoint x="244" y="1229" as="sourcePoint" />
            <mxPoint x="284" y="1229" as="targetPoint" />
          </mxGeometry>
        </mxCell>
        <mxCell id="H6Rytph9yBVc3_2G-r5q-232" value="" style="shape=cube;whiteSpace=wrap;html=1;boundedLbl=1;backgroundOutline=1;darkOpacity=0.05;darkOpacity2=0.1;size=10;direction=east;flipH=1;fillColor=#ffe6cc;strokeColor=#d79b00;gradientColor=none;" vertex="1" parent="1">
          <mxGeometry x="272.5" y="1203" width="19" height="50" as="geometry" />
        </mxCell>
        <mxCell id="H6Rytph9yBVc3_2G-r5q-275" value="" style="shape=flexArrow;endArrow=none;html=1;rounded=0;shadow=0;comic=0;sketch=0;fontFamily=Helvetica;startSize=0;endSize=2.016279069767442;strokeWidth=2;width=3.488372093023256;endFill=0;fillColor=#ffe6cc;strokeColor=#d79b00;" edge="1" parent="1">
          <mxGeometry width="50" height="50" relative="1" as="geometry">
            <mxPoint x="287" y="1229" as="sourcePoint" />
            <mxPoint x="310" y="1229" as="targetPoint" />
          </mxGeometry>
        </mxCell>
        <mxCell id="H6Rytph9yBVc3_2G-r5q-279" value="" style="shape=flexArrow;endArrow=none;html=1;rounded=0;shadow=0;comic=0;sketch=0;fontFamily=Helvetica;startSize=0;endSize=2.016279069767442;strokeWidth=2;width=3.488372093023256;endFill=0;fillColor=#ffe6cc;strokeColor=#d79b00;" edge="1" parent="1">
          <mxGeometry width="50" height="50" relative="1" as="geometry">
            <mxPoint x="404" y="1229" as="sourcePoint" />
            <mxPoint x="433" y="1228.88" as="targetPoint" />
          </mxGeometry>
        </mxCell>
        <mxCell id="H6Rytph9yBVc3_2G-r5q-237" value="" style="shape=cube;whiteSpace=wrap;html=1;boundedLbl=1;backgroundOutline=1;darkOpacity=0.05;darkOpacity2=0.1;size=20;direction=east;flipH=1;fillColor=#ffe6cc;strokeColor=#d79b00;gradientColor=none;" vertex="1" parent="1">
          <mxGeometry x="415.5" y="1183" width="34" height="90" as="geometry" />
        </mxCell>
        <mxCell id="H6Rytph9yBVc3_2G-r5q-243" value="" style="shape=cube;whiteSpace=wrap;html=1;boundedLbl=1;backgroundOutline=1;darkOpacity=0.05;darkOpacity2=0.1;size=20;direction=east;flipH=1;fillColor=none;strokeColor=#d79b00;gradientColor=none;dashed=1;" vertex="1" parent="1">
          <mxGeometry x="430" y="1183" width="34" height="90" as="geometry" />
        </mxCell>
        <mxCell id="H6Rytph9yBVc3_2G-r5q-280" value="" style="shape=flexArrow;endArrow=none;html=1;rounded=0;shadow=0;comic=0;sketch=0;fontFamily=Helvetica;startSize=0;endSize=2.016279069767442;strokeWidth=2;width=3.488372093023256;endFill=0;fillColor=#ffe6cc;strokeColor=#d79b00;entryX=0.838;entryY=0.502;entryDx=0;entryDy=0;entryPerimeter=0;" edge="1" parent="1" target="H6Rytph9yBVc3_2G-r5q-239">
          <mxGeometry width="50" height="50" relative="1" as="geometry">
            <mxPoint x="456.5" y="1228.51" as="sourcePoint" />
            <mxPoint x="485.4999999999999" y="1228.39" as="targetPoint" />
          </mxGeometry>
        </mxCell>
        <mxCell id="H6Rytph9yBVc3_2G-r5q-239" value="" style="shape=cube;whiteSpace=wrap;html=1;boundedLbl=1;backgroundOutline=1;darkOpacity=0.05;darkOpacity2=0.1;size=20;direction=east;flipH=1;fillColor=#ffe6cc;strokeColor=#d79b00;gradientColor=none;" vertex="1" parent="1">
          <mxGeometry x="485.5" y="1183" width="34" height="90" as="geometry" />
        </mxCell>
        <mxCell id="H6Rytph9yBVc3_2G-r5q-281" value="" style="shape=flexArrow;endArrow=none;html=1;rounded=0;shadow=0;comic=0;sketch=0;fontFamily=Helvetica;startSize=0;endSize=2.016279069767442;strokeWidth=2;width=3.488372093023256;endFill=0;fillColor=#ffe6cc;strokeColor=#d79b00;" edge="1" parent="1">
          <mxGeometry width="50" height="50" relative="1" as="geometry">
            <mxPoint x="511" y="1228.1299999999997" as="sourcePoint" />
            <mxPoint x="556.5" y="1228.40826446281" as="targetPoint" />
          </mxGeometry>
        </mxCell>
        <mxCell id="H6Rytph9yBVc3_2G-r5q-242" value="" style="shape=cube;whiteSpace=wrap;html=1;boundedLbl=1;backgroundOutline=1;darkOpacity=0.05;darkOpacity2=0.1;size=30;direction=east;flipH=1;fillColor=#ffe6cc;strokeColor=#d79b00;gradientColor=none;" vertex="1" parent="1">
          <mxGeometry x="546.5" y="1163" width="40" height="130" as="geometry" />
        </mxCell>
        <mxCell id="H6Rytph9yBVc3_2G-r5q-282" value="" style="shape=flexArrow;endArrow=none;html=1;rounded=0;shadow=0;comic=0;sketch=0;fontFamily=Helvetica;startSize=0;endSize=2.016279069767442;strokeWidth=2;width=3.488372093023256;endFill=0;fillColor=#ffe6cc;strokeColor=#d79b00;" edge="1" parent="1">
          <mxGeometry width="50" height="50" relative="1" as="geometry">
            <mxPoint x="570" y="1227.7999999999997" as="sourcePoint" />
            <mxPoint x="615.5" y="1228.07826446281" as="targetPoint" />
          </mxGeometry>
        </mxCell>
        <mxCell id="H6Rytph9yBVc3_2G-r5q-241" value="" style="shape=cube;whiteSpace=wrap;html=1;boundedLbl=1;backgroundOutline=1;darkOpacity=0.05;darkOpacity2=0.1;size=34;direction=east;flipH=1;fillColor=#f8cecc;strokeColor=#b85450;" vertex="1" parent="1">
          <mxGeometry x="611" y="1163" width="34" height="130" as="geometry" />
        </mxCell>
        <mxCell id="H6Rytph9yBVc3_2G-r5q-284" value="" style="shape=flexArrow;endArrow=none;html=1;rounded=0;shadow=0;comic=0;sketch=0;fontFamily=Helvetica;startSize=0;endSize=2.016279069767442;strokeWidth=2;width=3.488372093023256;endFill=0;fillColor=#ffe6cc;strokeColor=#d79b00;edgeStyle=orthogonalEdgeStyle;entryX=0.026;entryY=0.485;entryDx=0;entryDy=0;entryPerimeter=0;orthogonal=0;" edge="1" parent="1" target="H6Rytph9yBVc3_2G-r5q-247">
          <mxGeometry width="50" height="50" relative="1" as="geometry">
            <mxPoint x="284" y="1207" as="sourcePoint" />
            <mxPoint x="374" y="1173" as="targetPoint" />
            <Array as="points">
              <mxPoint x="284" y="1191" />
              <mxPoint x="343" y="1191" />
              <mxPoint x="343" y="1209" />
            </Array>
          </mxGeometry>
        </mxCell>
        <mxCell id="H6Rytph9yBVc3_2G-r5q-286" value="" style="shape=flexArrow;endArrow=none;html=1;rounded=0;shadow=0;comic=0;sketch=0;fontFamily=Helvetica;startSize=0;endSize=2.016279069767442;strokeWidth=2;width=3.488372093023256;endFill=0;fillColor=#ffe6cc;strokeColor=#d79b00;edgeStyle=orthogonalEdgeStyle;orthogonal=0;entryX=0.412;entryY=0.089;entryDx=0;entryDy=0;entryPerimeter=0;" edge="1" parent="1" target="H6Rytph9yBVc3_2G-r5q-243">
          <mxGeometry width="50" height="50" relative="1" as="geometry">
            <mxPoint x="284" y="1207" as="sourcePoint" />
            <mxPoint x="504" y="1191" as="targetPoint" />
            <Array as="points">
              <mxPoint x="284" y="1161" />
              <mxPoint x="450" y="1161" />
            </Array>
          </mxGeometry>
        </mxCell>
        <mxCell id="H6Rytph9yBVc3_2G-r5q-294" value="" style="shape=cube;whiteSpace=wrap;html=1;boundedLbl=1;backgroundOutline=1;darkOpacity=0.05;darkOpacity2=0.1;size=34;direction=east;flipH=1;fillColor=#d5e8d4;strokeColor=#82b366;" vertex="1" parent="1">
          <mxGeometry x="614" y="1163" width="34" height="130" as="geometry" />
        </mxCell>
        <mxCell id="H6Rytph9yBVc3_2G-r5q-295" value="" style="shape=cube;whiteSpace=wrap;html=1;boundedLbl=1;backgroundOutline=1;darkOpacity=0.05;darkOpacity2=0.1;size=34;direction=east;flipH=1;fillColor=#dae8fc;strokeColor=#6c8ebf;" vertex="1" parent="1">
          <mxGeometry x="617" y="1163" width="34" height="130" as="geometry" />
        </mxCell>
        <mxCell id="H6Rytph9yBVc3_2G-r5q-297" value="1920x1080x1" style="text;html=1;strokeColor=none;fillColor=none;align=center;verticalAlign=middle;whiteSpace=wrap;rounded=0;shadow=0;sketch=0;fontFamily=Helvetica;fontSize=6;rotation=0;" vertex="1" parent="1">
          <mxGeometry x="138" y="1285" width="60" height="30" as="geometry" />
        </mxCell>
        <mxCell id="H6Rytph9yBVc3_2G-r5q-298" value="540x960x4" style="text;html=1;strokeColor=none;fillColor=none;align=center;verticalAlign=middle;whiteSpace=wrap;rounded=0;shadow=0;sketch=0;fontFamily=Helvetica;fontSize=6;rotation=0;" vertex="1" parent="1">
          <mxGeometry x="198" y="1265" width="60" height="30" as="geometry" />
        </mxCell>
        <mxCell id="H6Rytph9yBVc3_2G-r5q-299" value="270x480x16" style="text;html=1;strokeColor=none;fillColor=none;align=center;verticalAlign=middle;whiteSpace=wrap;rounded=0;shadow=0;sketch=0;fontFamily=Helvetica;fontSize=6;rotation=-90;" vertex="1" parent="1">
          <mxGeometry x="249" y="1260" width="60" height="30" as="geometry" />
        </mxCell>
        <mxCell id="H6Rytph9yBVc3_2G-r5q-300" value="" style="shape=cube;whiteSpace=wrap;html=1;boundedLbl=1;backgroundOutline=1;darkOpacity=0.05;darkOpacity2=0.1;size=10;direction=east;flipH=1;fillColor=#ffe6cc;strokeColor=#d79b00;gradientColor=none;" vertex="1" parent="1">
          <mxGeometry x="303" y="1202" width="19" height="50" as="geometry" />
        </mxCell>
        <mxCell id="H6Rytph9yBVc3_2G-r5q-276" value="" style="shape=flexArrow;endArrow=none;html=1;rounded=0;shadow=0;comic=0;sketch=0;fontFamily=Helvetica;startSize=0;endSize=2.016279069767442;strokeWidth=2;width=3.488372093023256;endFill=0;fillColor=#ffe6cc;strokeColor=#d79b00;" edge="1" parent="1">
          <mxGeometry width="50" height="50" relative="1" as="geometry">
            <mxPoint x="317" y="1229" as="sourcePoint" />
            <mxPoint x="346" y="1229" as="targetPoint" />
          </mxGeometry>
        </mxCell>
        <mxCell id="H6Rytph9yBVc3_2G-r5q-252" value="" style="group" vertex="1" connectable="0" parent="1">
          <mxGeometry x="332.125" y="1208.0049999999999" width="20.75" height="41" as="geometry" />
        </mxCell>
        <mxCell id="H6Rytph9yBVc3_2G-r5q-247" value="" style="shape=cylinder3;whiteSpace=wrap;html=1;boundedLbl=1;backgroundOutline=1;size=7.660347854034853;shadow=0;sketch=0;fontFamily=Helvetica;strokeColor=#d79b00;strokeWidth=1;fillColor=#ffe6cc;gradientDirection=radial;rotation=90;" vertex="1" parent="H6Rytph9yBVc3_2G-r5q-252">
          <mxGeometry x="-10.125" y="10.125" width="41" height="20.75" as="geometry" />
        </mxCell>
        <mxCell id="H6Rytph9yBVc3_2G-r5q-248" value="" style="endArrow=none;html=1;rounded=0;fontFamily=Helvetica;entryX=0.5;entryY=0.74;entryDx=0;entryDy=0;entryPerimeter=0;exitX=0.5;exitY=0;exitDx=0;exitDy=0;exitPerimeter=0;fillColor=#ffe6cc;strokeColor=#d79b00;strokeWidth=3;" edge="1" parent="H6Rytph9yBVc3_2G-r5q-252" source="H6Rytph9yBVc3_2G-r5q-247" target="H6Rytph9yBVc3_2G-r5q-247">
          <mxGeometry width="50" height="50" relative="1" as="geometry">
            <mxPoint x="63.875" y="1.125" as="sourcePoint" />
            <mxPoint x="113.875" y="-48.875" as="targetPoint" />
          </mxGeometry>
        </mxCell>
        <mxCell id="H6Rytph9yBVc3_2G-r5q-249" value="" style="endArrow=none;html=1;rounded=0;fontFamily=Helvetica;entryX=0;entryY=0;entryDx=0;entryDy=7.660347854034853;entryPerimeter=0;exitX=1;exitY=0;exitDx=0;exitDy=7.660347854034853;exitPerimeter=0;fillColor=#ffe6cc;strokeColor=#d79b00;strokeWidth=2;" edge="1" parent="H6Rytph9yBVc3_2G-r5q-252" source="H6Rytph9yBVc3_2G-r5q-247" target="H6Rytph9yBVc3_2G-r5q-247">
          <mxGeometry width="50" height="50" relative="1" as="geometry">
            <mxPoint x="30.749999999999886" y="31.5" as="sourcePoint" />
            <mxPoint x="15.394999999999868" y="31.5" as="targetPoint" />
          </mxGeometry>
        </mxCell>
        <mxCell id="H6Rytph9yBVc3_2G-r5q-301" value="" style="shape=cube;whiteSpace=wrap;html=1;boundedLbl=1;backgroundOutline=1;darkOpacity=0.05;darkOpacity2=0.1;size=10;direction=east;flipH=1;fillColor=#ffe6cc;strokeColor=#d79b00;gradientColor=none;" vertex="1" parent="1">
          <mxGeometry x="362" y="1203" width="19" height="50" as="geometry" />
        </mxCell>
        <mxCell id="H6Rytph9yBVc3_2G-r5q-278" value="" style="shape=flexArrow;endArrow=none;html=1;rounded=0;shadow=0;comic=0;sketch=0;fontFamily=Helvetica;startSize=0;endSize=2.016279069767442;strokeWidth=2;width=3.488372093023256;endFill=0;fillColor=#ffe6cc;strokeColor=#d79b00;" edge="1" parent="1">
          <mxGeometry width="50" height="50" relative="1" as="geometry">
            <mxPoint x="376" y="1229" as="sourcePoint" />
            <mxPoint x="405" y="1229" as="targetPoint" />
          </mxGeometry>
        </mxCell>
        <mxCell id="H6Rytph9yBVc3_2G-r5q-253" value="" style="group" vertex="1" connectable="0" parent="1">
          <mxGeometry x="387.385" y="1208.0049999999999" width="20.75" height="41" as="geometry" />
        </mxCell>
        <mxCell id="H6Rytph9yBVc3_2G-r5q-254" value="" style="shape=cylinder3;whiteSpace=wrap;html=1;boundedLbl=1;backgroundOutline=1;size=7.660347854034853;shadow=0;sketch=0;fontFamily=Helvetica;strokeColor=#d79b00;strokeWidth=1;fillColor=#ffe6cc;gradientDirection=radial;rotation=90;" vertex="1" parent="H6Rytph9yBVc3_2G-r5q-253">
          <mxGeometry x="-10.125" y="10.125" width="41" height="20.75" as="geometry" />
        </mxCell>
        <mxCell id="H6Rytph9yBVc3_2G-r5q-255" value="" style="endArrow=none;html=1;rounded=0;fontFamily=Helvetica;entryX=0.5;entryY=0.74;entryDx=0;entryDy=0;entryPerimeter=0;exitX=0.5;exitY=0;exitDx=0;exitDy=0;exitPerimeter=0;fillColor=#ffe6cc;strokeColor=#d79b00;strokeWidth=3;" edge="1" parent="H6Rytph9yBVc3_2G-r5q-253" source="H6Rytph9yBVc3_2G-r5q-254" target="H6Rytph9yBVc3_2G-r5q-254">
          <mxGeometry width="50" height="50" relative="1" as="geometry">
            <mxPoint x="63.875" y="1.125" as="sourcePoint" />
            <mxPoint x="113.875" y="-48.875" as="targetPoint" />
          </mxGeometry>
        </mxCell>
        <mxCell id="H6Rytph9yBVc3_2G-r5q-256" value="" style="endArrow=none;html=1;rounded=0;fontFamily=Helvetica;entryX=0;entryY=0;entryDx=0;entryDy=7.660347854034853;entryPerimeter=0;exitX=1;exitY=0;exitDx=0;exitDy=7.660347854034853;exitPerimeter=0;fillColor=#ffe6cc;strokeColor=#d79b00;strokeWidth=2;" edge="1" parent="H6Rytph9yBVc3_2G-r5q-253" source="H6Rytph9yBVc3_2G-r5q-254" target="H6Rytph9yBVc3_2G-r5q-254">
          <mxGeometry width="50" height="50" relative="1" as="geometry">
            <mxPoint x="30.749999999999886" y="31.5" as="sourcePoint" />
            <mxPoint x="15.394999999999868" y="31.5" as="targetPoint" />
          </mxGeometry>
        </mxCell>
        <mxCell id="H6Rytph9yBVc3_2G-r5q-302" value="270x480x16" style="text;html=1;strokeColor=none;fillColor=none;align=center;verticalAlign=middle;whiteSpace=wrap;rounded=0;shadow=0;sketch=0;fontFamily=Helvetica;fontSize=6;rotation=-90;" vertex="1" parent="1">
          <mxGeometry x="281" y="1260" width="60" height="30" as="geometry" />
        </mxCell>
        <mxCell id="H6Rytph9yBVc3_2G-r5q-303" value="270x480x16" style="text;html=1;strokeColor=none;fillColor=none;align=center;verticalAlign=middle;whiteSpace=wrap;rounded=0;shadow=0;sketch=0;fontFamily=Helvetica;fontSize=6;rotation=-90;" vertex="1" parent="1">
          <mxGeometry x="341" y="1259" width="60" height="30" as="geometry" />
        </mxCell>
        <mxCell id="H6Rytph9yBVc3_2G-r5q-304" value="540x960x16+16" style="text;html=1;strokeColor=none;fillColor=none;align=center;verticalAlign=middle;whiteSpace=wrap;rounded=0;shadow=0;sketch=0;fontFamily=Helvetica;fontSize=6;rotation=0;" vertex="1" parent="1">
          <mxGeometry x="404" y="1265" width="60" height="30" as="geometry" />
        </mxCell>
        <mxCell id="H6Rytph9yBVc3_2G-r5q-305" value="540x960x16" style="text;html=1;strokeColor=none;fillColor=none;align=center;verticalAlign=middle;whiteSpace=wrap;rounded=0;shadow=0;sketch=0;fontFamily=Helvetica;fontSize=6;rotation=0;" vertex="1" parent="1">
          <mxGeometry x="472" y="1265" width="60" height="30" as="geometry" />
        </mxCell>
        <mxCell id="H6Rytph9yBVc3_2G-r5q-306" value="1080x1920x4" style="text;html=1;strokeColor=none;fillColor=none;align=center;verticalAlign=middle;whiteSpace=wrap;rounded=0;shadow=0;sketch=0;fontFamily=Helvetica;fontSize=6;rotation=0;" vertex="1" parent="1">
          <mxGeometry x="532" y="1285" width="60" height="30" as="geometry" />
        </mxCell>
        <mxCell id="H6Rytph9yBVc3_2G-r5q-307" value="1920x1080x3" style="text;html=1;strokeColor=none;fillColor=none;align=center;verticalAlign=middle;whiteSpace=wrap;rounded=0;shadow=0;sketch=0;fontFamily=Helvetica;fontSize=6;rotation=0;" vertex="1" parent="1">
          <mxGeometry x="598" y="1285" width="60" height="30" as="geometry" />
        </mxCell>
      </root>
    </mxGraphModel>
  </diagram>
</mxfile>
